<?xml version="1.0" encoding="UTF-8"?>
<!DOCTYPE svg PUBLIC "-//W3C//DTD SVG 1.1//EN" "http://www.w3.org/Graphics/SVG/1.1/DTD/svg11.dtd">
<svg xmlns="http://www.w3.org/2000/svg" version="1.1" width="360px" height="360px" style="shape-rendering:geometricPrecision; text-rendering:geometricPrecision; image-rendering:optimizeQuality; fill-rule:evenodd; clip-rule:evenodd" xmlns:xlink="http://www.w3.org/1999/xlink">
<g><path style="opacity:0.078" fill="#828288" d="M 240.5,43.5 C 242.749,44.0798 244.415,45.4131 245.5,47.5C 243.251,46.9202 241.585,45.5869 240.5,43.5 Z"/></g>
<g><path style="opacity:1" fill="#e4e5e6" d="M 244.5,53.5 C 245.496,53.4142 246.329,53.7476 247,54.5C 247.374,56.4913 248.207,58.158 249.5,59.5C 249.737,60.791 249.404,61.791 248.5,62.5C 245.102,59.2794 241.102,57.1128 236.5,56C 235.364,54.8549 234.364,53.6883 233.5,52.5C 232.404,48.7113 231.737,48.7113 231.5,52.5C 228.873,51.9084 226.206,51.5751 223.5,51.5C 223.527,49.8007 224.194,48.4674 225.5,47.5C 226.822,47.33 227.989,47.6634 229,48.5C 229.408,46.5904 230.575,45.5904 232.5,45.5C 235.291,47.7888 237.958,50.2888 240.5,53C 241.793,53.49 243.127,53.6567 244.5,53.5 Z"/></g>
<g><path style="opacity:0.133" fill="#6b6c70" d="M 218.5,45.5 C 219.15,47.4352 219.483,49.4352 219.5,51.5C 218.732,50.7375 218.232,49.7375 218,48.5C 217.667,48.8333 217.333,49.1667 217,49.5C 215.855,54.0826 215.189,58.7492 215,63.5C 214.667,62.1667 214.333,60.8333 214,59.5C 213.517,60.448 213.351,61.448 213.5,62.5C 212.833,61.8333 212.167,61.1667 211.5,60.5C 211.736,54.4297 214.07,49.4297 218.5,45.5 Z"/></g>
<g><path style="opacity:0.047" fill="#7a7979" d="M 246.5,50.5 C 248.572,52.3495 249.905,54.6829 250.5,57.5C 249.662,57.8417 249.328,58.5084 249.5,59.5C 248.207,58.158 247.374,56.4913 247,54.5C 246.329,53.7476 245.496,53.4142 244.5,53.5C 245.167,52.5 245.833,51.5 246.5,50.5 Z"/></g>
<g><path style="opacity:1" fill="#c4c5ca" d="M 230.5,54.5 C 236.122,57.4719 241.455,60.8053 246.5,64.5C 246.167,64.5 245.833,64.5 245.5,64.5C 244.833,64.5 244.167,64.5 243.5,64.5C 239.167,61.331 234.5,58.6643 229.5,56.5C 228.158,55.207 226.491,54.3736 224.5,54C 226.598,53.3224 228.598,53.4891 230.5,54.5 Z"/></g>
<g><path style="opacity:0.973" fill="#feba00" d="M 40.5,57.5 C 56.1702,57.3334 71.8369,57.5001 87.5,58C 75.0941,105.789 62.7608,153.623 50.5,201.5C 35.1811,202.499 19.8478,202.833 4.5,202.5C 16.3423,154.131 28.3423,105.798 40.5,57.5 Z"/></g>
<g><path style="opacity:0.972" fill="#fdb901" d="M 205.5,58.5 C 202.071,58.5457 198.404,58.7123 194.5,59C 190.13,60.7108 185.797,62.2108 181.5,63.5C 177.584,62.9609 174.584,64.2942 172.5,67.5C 171.833,67.5 171.5,67.8333 171.5,68.5C 169.042,70.4929 168.875,72.8262 171,75.5C 174.606,79.5531 179.106,81.8865 184.5,82.5C 184.168,88.1613 182.668,93.4946 180,98.5C 176.318,102.015 172.818,105.682 169.5,109.5C 170.357,112.451 170.357,115.451 169.5,118.5C 169.5,118.833 169.5,119.167 169.5,119.5C 168.337,123.605 168.67,127.771 170.5,132C 170.361,133.301 169.695,134.134 168.5,134.5C 165.254,135.054 162.254,136.054 159.5,137.5C 155.958,137.187 152.625,137.521 149.5,138.5C 149.167,138.5 148.833,138.5 148.5,138.5C 145.41,139.665 144.076,141.998 144.5,145.5C 144.66,147.199 144.494,148.866 144,150.5C 141.5,151.667 139,152.833 136.5,154C 135.874,154.75 135.374,155.584 135,156.5C 134.601,156.272 134.435,155.938 134.5,155.5C 135.027,152.091 135.527,148.758 136,145.5C 131.289,150.706 126.789,156.039 122.5,161.5C 121.094,161.973 120.427,162.973 120.5,164.5C 119.833,164.5 119.5,164.833 119.5,165.5C 118.5,165.833 117.833,166.5 117.5,167.5C 116.833,167.5 116.5,167.833 116.5,168.5C 115.662,168.842 115.328,169.508 115.5,170.5C 114.833,170.5 114.5,170.833 114.5,171.5C 113.833,171.5 113.5,171.833 113.5,172.5C 112.833,172.5 112.5,172.833 112.5,173.5C 111.5,173.833 110.833,174.5 110.5,175.5C 109.833,175.5 109.5,175.833 109.5,176.5C 109.5,176.833 109.5,177.167 109.5,177.5C 108.5,177.833 107.833,178.5 107.5,179.5C 106.833,179.5 106.5,179.833 106.5,180.5C 104.177,183.126 101.843,185.793 99.5,188.5C 98.8333,188.5 98.5,188.833 98.5,189.5C 97.4739,190.853 96.1405,191.853 94.5,192.5C 94.8146,190.774 94.9813,189.107 95,187.5C 92.3762,188.611 90.8762,190.611 90.5,193.5C 89.5,192.833 88.5,192.167 87.5,191.5C 86.52,194.086 86.1866,196.753 86.5,199.5C 85.0221,198.552 84.0221,197.219 83.5,195.5C 83.1667,194.167 82.8333,192.833 82.5,191.5C 82.0679,190.29 81.4013,189.29 80.5,188.5C 77.3692,177.774 74.0359,167.107 70.5,156.5C 77.3559,128.41 84.5225,100.41 92,72.5C 97.5304,87.4242 102.864,102.424 108,117.5C 124.458,97.373 141.291,77.5397 158.5,58C 174.339,57.172 190.005,57.3387 205.5,58.5 Z"/></g>
<g><path style="opacity:0.963" fill="#fcb801" d="M 250.5,57.5 C 256.167,57.5 261.833,57.5 267.5,57.5C 269.16,64.3142 271.327,70.9809 274,77.5C 274.667,79.1667 274.667,80.8333 274,82.5C 266.352,90.4918 259.186,98.8251 252.5,107.5C 251.167,108.833 249.833,108.833 248.5,107.5C 246.525,103.886 244.192,100.553 241.5,97.5C 241.802,90.4375 239.135,84.7708 233.5,80.5C 238.492,75.8224 242.492,70.489 245.5,64.5C 245.833,64.5 246.167,64.5 246.5,64.5C 247.167,64.5 247.833,64.5 248.5,64.5C 249.675,64.719 250.675,64.3857 251.5,63.5C 251.006,61.9745 250.339,60.6412 249.5,59.5C 249.328,58.5084 249.662,57.8417 250.5,57.5 Z"/></g>
<g><path style="opacity:0.964" fill="#fdb901" d="M 263.5,164.5 C 261.973,164.427 260.973,165.094 260.5,166.5C 257.389,168.222 254.055,169.056 250.5,169C 250.039,165.656 249.039,162.489 247.5,159.5C 247.709,158.914 248.043,158.414 248.5,158C 246.561,156.568 245.228,154.735 244.5,152.5C 244.748,148.094 245.415,143.76 246.5,139.5C 248.909,135.467 252.576,133.8 257.5,134.5C 259.127,136.63 260.96,138.63 263,140.5C 262.947,138.064 263.113,135.731 263.5,133.5C 267.657,136.798 272.324,137.798 277.5,136.5C 277.376,135.893 277.043,135.56 276.5,135.5C 274.768,131.82 272.935,128.153 271,124.5C 265.388,122.279 260.555,118.946 256.5,114.5C 255.89,113.609 255.557,112.609 255.5,111.5C 270.968,93.8587 286.302,76.0254 301.5,58C 318.51,57.1671 335.51,57.3337 352.5,58.5C 322.81,93.8527 293.144,129.186 263.5,164.5 Z"/></g>
<g><path style="opacity:1" fill="#1b1c20" d="M 233.5,52.5 C 234.364,53.6883 235.364,54.8549 236.5,56C 241.102,57.1128 245.102,59.2794 248.5,62.5C 248.5,63.1667 248.5,63.8333 248.5,64.5C 247.833,64.5 247.167,64.5 246.5,64.5C 241.455,60.8053 236.122,57.4719 230.5,54.5C 231.29,53.5987 232.29,52.9321 233.5,52.5 Z"/></g>
<g><path style="opacity:1" fill="#797b82" d="M 225.5,47.5 C 224.194,48.4674 223.527,49.8007 223.5,51.5C 226.206,51.5751 228.873,51.9084 231.5,52.5C 231.737,48.7113 232.404,48.7113 233.5,52.5C 232.29,52.9321 231.29,53.5987 230.5,54.5C 228.598,53.4891 226.598,53.3224 224.5,54C 226.491,54.3736 228.158,55.207 229.5,56.5C 233.507,60.1745 238.173,62.8412 243.5,64.5C 243.631,65.3764 243.298,66.0431 242.5,66.5C 239.661,64.5797 236.661,62.9131 233.5,61.5C 231.712,63.7908 229.712,65.9575 227.5,68C 231.457,67.6039 234.29,69.1039 236,72.5C 238.054,70.4528 239.054,70.4528 239,72.5C 236.158,75.3351 233.992,74.8351 232.5,71C 223.306,69.9548 221.639,65.9548 227.5,59C 224.968,58.8332 223.134,59.9999 222,62.5C 221.37,60.0966 222.203,58.2633 224.5,57C 223.151,56.2276 222.318,55.0609 222,53.5C 220.993,48.7058 221.16,46.7058 222.5,47.5C 223.5,47.5 224.5,47.5 225.5,47.5 Z"/></g>
<g><path style="opacity:1" fill="#3d3e43" d="M 229.5,56.5 C 234.5,58.6643 239.167,61.331 243.5,64.5C 238.173,62.8412 233.507,60.1745 229.5,56.5 Z"/></g>
<g><path style="opacity:1" fill="#957f4b" d="M 249.5,59.5 C 250.339,60.6412 251.006,61.9745 251.5,63.5C 250.675,64.3857 249.675,64.719 248.5,64.5C 248.5,63.8333 248.5,63.1667 248.5,62.5C 249.404,61.791 249.737,60.791 249.5,59.5 Z"/></g>
<g><path style="opacity:1" fill="#483d2a" d="M 181.5,63.5 C 178.543,64.8234 175.543,66.1568 172.5,67.5C 174.584,64.2942 177.584,62.9609 181.5,63.5 Z"/></g>
<g><path style="opacity:1" fill="#e9e9ea" d="M 212.5,67.5 C 212.631,68.2389 212.464,68.9056 212,69.5C 211.346,68.3044 210.846,68.3044 210.5,69.5C 211.89,71.1694 212.223,72.8361 211.5,74.5C 209.929,72.585 207.929,71.585 205.5,71.5C 204.791,70.596 203.791,70.2627 202.5,70.5C 203.014,68.4884 203.18,66.4884 203,64.5C 201.885,66.785 200.385,68.1184 198.5,68.5C 196.128,69.0128 193.795,69.3461 191.5,69.5C 189.845,68.6123 188.178,68.1123 186.5,68C 189.224,70.6924 192.557,72.1924 196.5,72.5C 195.789,74.0301 194.789,75.3634 193.5,76.5C 191.282,79.4196 189.615,79.0863 188.5,75.5C 180.233,79.1962 174.567,76.8628 171.5,68.5C 171.5,67.8333 171.833,67.5 172.5,67.5C 175.543,66.1568 178.543,64.8234 181.5,63.5C 187.542,63.2819 193.375,62.2819 199,60.5C 202.175,60.9459 205.342,61.4459 208.5,62C 210.439,63.4321 211.772,65.2654 212.5,67.5 Z"/></g>
<g><path style="opacity:1" fill="#505158" d="M 205.5,71.5 C 204.167,71.5 202.833,71.5 201.5,71.5C 201.5,70.5 201.5,69.5 201.5,68.5C 200.5,68.5 199.5,68.5 198.5,68.5C 200.385,68.1184 201.885,66.785 203,64.5C 203.18,66.4884 203.014,68.4884 202.5,70.5C 203.791,70.2627 204.791,70.596 205.5,71.5 Z"/></g>
<g><path style="opacity:1" fill="#161820" d="M 198.5,68.5 C 199.5,68.5 200.5,68.5 201.5,68.5C 201.5,69.5 201.5,70.5 201.5,71.5C 199.958,72.3007 198.292,72.634 196.5,72.5C 192.557,72.1924 189.224,70.6924 186.5,68C 188.178,68.1123 189.845,68.6123 191.5,69.5C 193.795,69.3461 196.128,69.0128 198.5,68.5 Z"/></g>
<g><path style="opacity:1" fill="#cfd0d3" d="M 219.5,51.5 C 219.421,52.9305 219.754,54.2638 220.5,55.5C 219.726,56.7112 218.893,56.7112 218,55.5C 219.291,60.8706 221.125,66.2039 223.5,71.5C 223.113,73.2743 222.447,74.941 221.5,76.5C 224.445,81.6522 223.945,82.3189 220,78.5C 216.985,73.4749 214.818,68.1415 213.5,62.5C 213.351,61.448 213.517,60.448 214,59.5C 214.333,60.8333 214.667,62.1667 215,63.5C 215.189,58.7492 215.855,54.0826 217,49.5C 217.333,49.1667 217.667,48.8333 218,48.5C 218.232,49.7375 218.732,50.7375 219.5,51.5 Z"/></g>
<g><path style="opacity:1" fill="#5d5f65" d="M 212.5,67.5 C 215.051,70.6123 214.718,73.6123 211.5,76.5C 213.748,77.324 213.914,78.324 212,79.5C 210.583,78.9221 209.75,77.9221 209.5,76.5C 208.889,74.2254 207.555,72.5588 205.5,71.5C 207.929,71.585 209.929,72.585 211.5,74.5C 212.223,72.8361 211.89,71.1694 210.5,69.5C 210.846,68.3044 211.346,68.3044 212,69.5C 212.464,68.9056 212.631,68.2389 212.5,67.5 Z"/></g>
<g><path style="opacity:1" fill="#b5b6b9" d="M 201.5,71.5 C 202.833,71.5 204.167,71.5 205.5,71.5C 207.555,72.5588 208.889,74.2254 209.5,76.5C 207.606,75.9524 205.94,74.9524 204.5,73.5C 203.712,74.7701 202.712,75.7701 201.5,76.5C 202.562,74.7659 202.562,73.0992 201.5,71.5 Z"/></g>
<g><path style="opacity:1" fill="#717278" d="M 201.5,71.5 C 202.562,73.0992 202.562,74.7659 201.5,76.5C 198.875,77.4577 198.875,78.6243 201.5,80C 205.898,79.4078 207.898,81.2411 207.5,85.5C 203.832,83.2795 199.832,82.2795 195.5,82.5C 196.609,81.71 197.942,81.21 199.5,81C 197.905,78.8981 195.905,77.3981 193.5,76.5C 194.789,75.3634 195.789,74.0301 196.5,72.5C 198.292,72.634 199.958,72.3007 201.5,71.5 Z"/></g>
<g><path style="opacity:1" fill="#f0f1f1" d="M 195.5,82.5 C 199.832,82.2795 203.832,83.2795 207.5,85.5C 209.199,85.3398 210.866,85.5065 212.5,86C 215.816,89.3202 219.482,92.1535 223.5,94.5C 224.919,97.4952 224.419,100.162 222,102.5C 219.795,105.04 217.295,107.207 214.5,109C 215.833,109 217.167,109 218.5,109C 216.343,110.912 214.009,112.579 211.5,114C 215.15,115.262 215.15,116.762 211.5,118.5C 209.473,118.662 207.473,118.495 205.5,118C 202.084,113.913 198.084,110.58 193.5,108C 196.377,107.275 199.043,107.775 201.5,109.5C 201.833,109.333 202.167,109.167 202.5,109C 201.429,108.148 200.429,107.315 199.5,106.5C 199.5,105.833 199.833,105.5 200.5,105.5C 202.65,105.905 204.65,106.405 206.5,107C 203.044,103.549 199.044,100.882 194.5,99C 192.203,97.7367 191.37,95.9034 192,93.5C 193.171,95.6157 194.671,96.2824 196.5,95.5C 194.455,91.1457 194.122,86.8124 195.5,82.5 Z"/></g>
<g><path style="opacity:1" fill="#1c1d24" d="M 240.5,43.5 C 241.585,45.5869 243.251,46.9202 245.5,47.5C 246.11,48.391 246.443,49.391 246.5,50.5C 245.833,51.5 245.167,52.5 244.5,53.5C 243.127,53.6567 241.793,53.49 240.5,53C 237.958,50.2888 235.291,47.7888 232.5,45.5C 230.575,45.5904 229.408,46.5904 229,48.5C 227.989,47.6634 226.822,47.33 225.5,47.5C 224.5,47.5 223.5,47.5 222.5,47.5C 221.16,46.7058 220.993,48.7058 222,53.5C 222.318,55.0609 223.151,56.2276 224.5,57C 222.203,58.2633 221.37,60.0966 222,62.5C 223.134,59.9999 224.968,58.8332 227.5,59C 221.639,65.9548 223.306,69.9548 232.5,71C 233.992,74.8351 236.158,75.3351 239,72.5C 239.054,70.4528 238.054,70.4528 236,72.5C 234.29,69.1039 231.457,67.6039 227.5,68C 229.712,65.9575 231.712,63.7908 233.5,61.5C 236.661,62.9131 239.661,64.5797 242.5,66.5C 243.298,66.0431 243.631,65.3764 243.5,64.5C 244.167,64.5 244.833,64.5 245.5,64.5C 242.492,70.489 238.492,75.8224 233.5,80.5C 239.135,84.7708 241.802,90.4375 241.5,97.5C 244.192,100.553 246.525,103.886 248.5,107.5C 246.313,106.242 243.98,105.242 241.5,104.5C 239.043,101.766 236.043,99.7655 232.5,98.5C 230.555,99.1276 228.888,100.128 227.5,101.5C 226.686,103.631 226.186,105.964 226,108.5C 225.617,107.944 225.117,107.611 224.5,107.5C 224.607,105.621 224.107,105.288 223,106.5C 220.304,110.68 217.47,114.68 214.5,118.5C 213.5,118.5 212.5,118.5 211.5,118.5C 215.15,116.762 215.15,115.262 211.5,114C 214.009,112.579 216.343,110.912 218.5,109C 217.167,109 215.833,109 214.5,109C 217.295,107.207 219.795,105.04 222,102.5C 224.419,100.162 224.919,97.4952 223.5,94.5C 219.482,92.1535 215.816,89.3202 212.5,86C 210.866,85.5065 209.199,85.3398 207.5,85.5C 207.898,81.2411 205.898,79.4078 201.5,80C 198.875,78.6243 198.875,77.4577 201.5,76.5C 202.712,75.7701 203.712,74.7701 204.5,73.5C 205.94,74.9524 207.606,75.9524 209.5,76.5C 209.75,77.9221 210.583,78.9221 212,79.5C 213.914,78.324 213.748,77.324 211.5,76.5C 214.718,73.6123 215.051,70.6123 212.5,67.5C 211.772,65.2654 210.439,63.4321 208.5,62C 205.342,61.4459 202.175,60.9459 199,60.5C 193.375,62.2819 187.542,63.2819 181.5,63.5C 185.797,62.2108 190.13,60.7108 194.5,59C 198.404,58.7123 202.071,58.5457 205.5,58.5C 207.703,58.6036 209.703,59.2702 211.5,60.5C 212.167,61.1667 212.833,61.8333 213.5,62.5C 214.818,68.1415 216.985,73.4749 220,78.5C 223.945,82.3189 224.445,81.6522 221.5,76.5C 222.447,74.941 223.113,73.2743 223.5,71.5C 221.125,66.2039 219.291,60.8706 218,55.5C 218.893,56.7112 219.726,56.7112 220.5,55.5C 219.754,54.2638 219.421,52.9305 219.5,51.5C 219.483,49.4352 219.15,47.4352 218.5,45.5C 221.052,41.7191 224.719,39.7191 229.5,39.5C 233.542,40.0306 237.208,41.3639 240.5,43.5 Z"/></g>
<g><path style="opacity:1" fill="#a2a6af" d="M 223.5,90.5 C 225.5,91.976 227.167,93.8094 228.5,96C 227.551,96.6172 226.718,96.4506 226,95.5C 224.906,93.9221 224.072,92.2554 223.5,90.5 Z"/></g>
<g><path style="opacity:1" fill="#d7d8da" d="M 241.5,97.5 C 244.28,103.047 243.28,103.713 238.5,99.5C 237.185,96.6266 236.185,93.6266 235.5,90.5C 234.808,91.0253 234.308,91.6919 234,92.5C 233.821,90.5758 233.654,88.9091 233.5,87.5C 232.459,89.9913 231.626,89.9913 231,87.5C 230.5,88.5 230,89.5 229.5,90.5C 227.893,91.7001 226.893,91.2001 226.5,89C 227.749,83.6088 230.749,82.2755 235.5,85C 238.807,88.0689 240.307,91.9023 240,96.5C 240.383,97.056 240.883,97.3893 241.5,97.5 Z"/></g>
<g><path style="opacity:1" fill="#b4b5b8" d="M 219.5,82.5 C 225.175,83.4026 226.175,85.736 222.5,89.5C 221.167,88.5 219.833,87.5 218.5,86.5C 219.025,85.8076 219.692,85.3076 220.5,85C 219.748,84.3292 219.414,83.4959 219.5,82.5 Z"/></g>
<g><path style="opacity:1" fill="#8d8f96" d="M 204.5,75.5 C 207.661,79.0804 211.661,81.0804 216.5,81.5C 217.614,82.723 217.781,84.0563 217,85.5C 216.282,86.4506 215.449,86.6172 214.5,86C 211.657,82.8246 208.49,79.9913 205,77.5C 204.536,76.9056 204.369,76.2389 204.5,75.5 Z"/></g>
<g><path style="opacity:1" fill="#cfd1d5" d="M 225.5,73.5 C 227.857,73.3367 230.19,73.5034 232.5,74C 233.731,75.1827 233.731,76.3493 232.5,77.5C 229.504,75.2772 226.67,75.6105 224,78.5C 223.36,76.4567 223.86,74.7901 225.5,73.5 Z"/></g>
<g><path style="opacity:1" fill="#e4e4e6" d="M 241.5,104.5 C 240.833,104.5 240.167,104.5 239.5,104.5C 236.887,103.565 234.221,103.398 231.5,104C 229.845,105.444 229.178,107.278 229.5,109.5C 227.631,107.365 226.964,104.698 227.5,101.5C 228.888,100.128 230.555,99.1276 232.5,98.5C 236.043,99.7655 239.043,101.766 241.5,104.5 Z"/></g>
<g><path style="opacity:1" fill="#080d1b" d="M 239.5,104.5 C 242.939,106.394 246.272,108.56 249.5,111C 250.5,111.667 251.5,111.667 252.5,111C 251.262,110.31 251.262,109.81 252.5,109.5C 253.5,110.167 254.5,110.833 255.5,111.5C 255.557,112.609 255.89,113.609 256.5,114.5C 253.497,114.988 252.331,116.655 253,119.5C 254.196,123.197 256.363,126.197 259.5,128.5C 260.386,127.675 260.719,126.675 260.5,125.5C 261.5,125.5 262.5,125.5 263.5,125.5C 264.833,126.833 266.167,128.167 267.5,129.5C 265.926,129.937 264.759,130.937 264,132.5C 263.667,131.833 263.333,131.167 263,130.5C 261.583,131.078 260.75,132.078 260.5,133.5C 257.698,130.524 255.031,127.358 252.5,124C 245.829,121.102 238.829,119.602 231.5,119.5C 230.215,116.411 229.549,113.078 229.5,109.5C 229.178,107.278 229.845,105.444 231.5,104C 234.221,103.398 236.887,103.565 239.5,104.5 Z"/></g>
<g><path style="opacity:1" fill="#62656c" d="M 227.5,101.5 C 226.964,104.698 227.631,107.365 229.5,109.5C 229.549,113.078 230.215,116.411 231.5,119.5C 231.768,121.099 231.434,122.432 230.5,123.5C 228.771,119.37 227.604,115.036 227,110.5C 226.768,111.737 226.268,112.737 225.5,113.5C 225.768,111.901 225.434,110.568 224.5,109.5C 224.5,108.833 224.167,108.5 223.5,108.5C 223.5,107.833 223.833,107.5 224.5,107.5C 225.117,107.611 225.617,107.944 226,108.5C 226.186,105.964 226.686,103.631 227.5,101.5 Z"/></g>
<g><path style="opacity:0.988" fill="#7b7e88" d="M 239.5,104.5 C 240.167,104.5 240.833,104.5 241.5,104.5C 243.98,105.242 246.313,106.242 248.5,107.5C 249.833,108.833 251.167,108.833 252.5,107.5C 252.5,108.167 252.5,108.833 252.5,109.5C 251.262,109.81 251.262,110.31 252.5,111C 251.5,111.667 250.5,111.667 249.5,111C 246.272,108.56 242.939,106.394 239.5,104.5 Z"/></g>
<g><path style="opacity:1" fill="#e1e1e3" d="M 198.5,127.5 C 197.5,127.833 196.833,128.5 196.5,129.5C 193.829,132.161 190.829,134.494 187.5,136.5C 186.479,135.998 186.312,135.332 187,134.5C 189.25,133.292 191.417,131.959 193.5,130.5C 195.024,124.933 194.357,124.433 191.5,129C 188.783,131.076 185.783,131.743 182.5,131C 184.167,130.167 185.833,129.333 187.5,128.5C 188.833,127.833 188.833,127.167 187.5,126.5C 183.571,127.433 179.571,127.766 175.5,127.5C 177.12,123.358 179.786,119.858 183.5,117C 180.202,117.617 177.202,119.117 174.5,121.5C 173.808,120.975 173.308,120.308 173,119.5C 172.027,121.392 171.36,123.392 171,125.5C 169.681,123.75 169.181,121.75 169.5,119.5C 169.5,119.167 169.5,118.833 169.5,118.5C 170.391,116.709 171.391,114.876 172.5,113C 174.536,112.546 176.37,111.713 178,110.5C 182.127,111.239 186.294,111.739 190.5,112C 191.308,112.308 191.975,112.808 192.5,113.5C 191.238,114.093 190.404,114.759 190,115.5C 197.52,116.482 200.353,120.482 198.5,127.5 Z"/></g>
<g><path style="opacity:1" fill="#d9dadc" d="M 224.5,107.5 C 223.833,107.5 223.5,107.833 223.5,108.5C 222.637,111.923 221.47,115.256 220,118.5C 217.91,121.017 216.077,121.017 214.5,118.5C 217.47,114.68 220.304,110.68 223,106.5C 224.107,105.288 224.607,105.621 224.5,107.5 Z"/></g>
<g><path style="opacity:1" fill="#c6c8cd" d="M 224.5,109.5 C 225.434,110.568 225.768,111.901 225.5,113.5C 225.029,114.901 224.362,116.234 223.5,117.5C 223.167,117.167 222.833,116.833 222.5,116.5C 223.577,114.271 224.244,111.937 224.5,109.5 Z"/></g>
<g><path style="opacity:1" fill="#d6d7da" d="M 231.5,119.5 C 238.829,119.602 245.829,121.102 252.5,124C 255.031,127.358 257.698,130.524 260.5,133.5C 260.631,134.239 260.464,134.906 260,135.5C 259.329,134.748 258.496,134.414 257.5,134.5C 252.915,131.356 248.915,127.523 245.5,123C 241.131,122.575 236.797,122.908 232.5,124C 230.706,128.283 228.039,131.116 224.5,132.5C 225.098,131.205 225.598,129.872 226,128.5C 228.391,127.61 229.891,125.943 230.5,123.5C 231.434,122.432 231.768,121.099 231.5,119.5 Z"/></g>
<g><path style="opacity:1" fill="#303037" d="M 256.5,114.5 C 260.555,118.946 265.388,122.279 271,124.5C 272.935,128.153 274.768,131.82 276.5,135.5C 275.292,136.782 273.958,136.782 272.5,135.5C 270.758,133.437 269.091,131.437 267.5,129.5C 266.167,128.167 264.833,126.833 263.5,125.5C 263.938,125.565 264.272,125.399 264.5,125C 261.428,122.049 258.261,119.216 255,116.5C 254.333,117.5 254.333,118.5 255,119.5C 257.721,120.719 259.554,122.719 260.5,125.5C 260.719,126.675 260.386,127.675 259.5,128.5C 256.363,126.197 254.196,123.197 253,119.5C 252.331,116.655 253.497,114.988 256.5,114.5 Z"/></g>
<g><path style="opacity:1" fill="#dbdcdf" d="M 263.5,125.5 C 262.5,125.5 261.5,125.5 260.5,125.5C 259.554,122.719 257.721,120.719 255,119.5C 254.333,118.5 254.333,117.5 255,116.5C 258.261,119.216 261.428,122.049 264.5,125C 264.272,125.399 263.938,125.565 263.5,125.5 Z"/></g>
<g><path style="opacity:1" fill="#58514b" d="M 267.5,129.5 C 269.091,131.437 270.758,133.437 272.5,135.5C 273.958,136.782 275.292,136.782 276.5,135.5C 277.043,135.56 277.376,135.893 277.5,136.5C 272.324,137.798 267.657,136.798 263.5,133.5C 263.113,135.731 262.947,138.064 263,140.5C 260.96,138.63 259.127,136.63 257.5,134.5C 258.496,134.414 259.329,134.748 260,135.5C 260.464,134.906 260.631,134.239 260.5,133.5C 260.75,132.078 261.583,131.078 263,130.5C 263.333,131.167 263.667,131.833 264,132.5C 264.759,130.937 265.926,129.937 267.5,129.5 Z"/></g>
<g><path style="opacity:1" fill="#97928f" d="M 168.5,134.5 C 168.389,135.117 168.056,135.617 167.5,136C 168.737,136.232 169.737,136.732 170.5,137.5C 169.662,137.842 169.328,138.508 169.5,139.5C 168.167,139.5 166.833,139.5 165.5,139.5C 165.649,138.448 165.483,137.448 165,136.5C 164.214,142.791 162.38,143.124 159.5,137.5C 162.254,136.054 165.254,135.054 168.5,134.5 Z"/></g>
<g><path style="opacity:1" fill="#f0f0f1" d="M 148.5,138.5 C 148.833,138.5 149.167,138.5 149.5,138.5C 153.696,139.232 157.696,140.565 161.5,142.5C 156.629,145.102 151.629,147.435 146.5,149.5C 146.567,148.041 146.234,146.708 145.5,145.5C 145.688,142.794 146.688,140.461 148.5,138.5 Z"/></g>
<g><path style="opacity:1" fill="#867348" d="M 148.5,138.5 C 146.688,140.461 145.688,142.794 145.5,145.5C 145.167,145.5 144.833,145.5 144.5,145.5C 144.076,141.998 145.41,139.665 148.5,138.5 Z"/></g>
<g><path style="opacity:0.968" fill="#feb900" d="M 259.5,187.5 C 259.5,186.833 259.5,186.167 259.5,185.5C 264.889,180.722 267.555,174.722 267.5,167.5C 274.697,158.978 282.031,150.478 289.5,142C 291.81,141.503 294.143,141.337 296.5,141.5C 302.265,161.962 308.932,182.129 316.5,202C 299.5,202.667 282.5,202.667 265.5,202C 263.771,196.962 261.771,192.129 259.5,187.5 Z"/></g>
<g><path style="opacity:1" fill="#e1e2e4" d="M 236.5,142.5 C 237.376,142.369 238.043,142.702 238.5,143.5C 237.691,145.071 237.357,146.738 237.5,148.5C 235.901,148.232 234.568,148.566 233.5,149.5C 231.647,150.614 231.147,149.948 232,147.5C 233.044,146.377 233.71,145.044 234,143.5C 234.671,142.748 235.504,142.414 236.5,142.5 Z"/></g>
<g><path style="opacity:1" fill="#615e5d" d="M 246.5,139.5 C 245.415,143.76 244.748,148.094 244.5,152.5C 243.732,151.737 243.232,150.737 243,149.5C 239.888,150.573 236.721,150.573 233.5,149.5C 234.568,148.566 235.901,148.232 237.5,148.5C 237.357,146.738 237.691,145.071 238.5,143.5C 238.043,142.702 237.376,142.369 236.5,142.5C 238.073,140.164 239.406,140.164 240.5,142.5C 239.054,144.782 238.721,147.115 239.5,149.5C 240.803,146.957 241.803,144.29 242.5,141.5C 242.376,140.893 242.043,140.56 241.5,140.5C 242.641,139.661 243.974,138.994 245.5,138.5C 246.107,138.624 246.44,138.957 246.5,139.5 Z"/></g>
<g><path style="opacity:1" fill="#dfdfe1" d="M 241.5,140.5 C 242.043,140.56 242.376,140.893 242.5,141.5C 241.803,144.29 240.803,146.957 239.5,149.5C 238.721,147.115 239.054,144.782 240.5,142.5C 240.328,141.508 240.662,140.842 241.5,140.5 Z"/></g>
<g><path style="opacity:1" fill="#0f121d" d="M 171.5,68.5 C 174.567,76.8628 180.233,79.1962 188.5,75.5C 189.615,79.0863 191.282,79.4196 193.5,76.5C 195.905,77.3981 197.905,78.8981 199.5,81C 197.942,81.21 196.609,81.71 195.5,82.5C 194.122,86.8124 194.455,91.1457 196.5,95.5C 194.671,96.2824 193.171,95.6157 192,93.5C 191.37,95.9034 192.203,97.7367 194.5,99C 199.044,100.882 203.044,103.549 206.5,107C 204.65,106.405 202.65,105.905 200.5,105.5C 200.389,104.883 200.056,104.383 199.5,104C 194.455,103.04 189.455,102.374 184.5,102C 185.716,103.74 187.382,104.74 189.5,105C 192.854,105.455 196.187,105.955 199.5,106.5C 200.429,107.315 201.429,108.148 202.5,109C 202.167,109.167 201.833,109.333 201.5,109.5C 199.043,107.775 196.377,107.275 193.5,108C 198.084,110.58 202.084,113.913 205.5,118C 207.473,118.495 209.473,118.662 211.5,118.5C 212.5,118.5 213.5,118.5 214.5,118.5C 216.077,121.017 217.91,121.017 220,118.5C 221.47,115.256 222.637,111.923 223.5,108.5C 224.167,108.5 224.5,108.833 224.5,109.5C 224.244,111.937 223.577,114.271 222.5,116.5C 222.833,116.833 223.167,117.167 223.5,117.5C 224.362,116.234 225.029,114.901 225.5,113.5C 226.268,112.737 226.768,111.737 227,110.5C 227.604,115.036 228.771,119.37 230.5,123.5C 229.891,125.943 228.391,127.61 226,128.5C 225.598,129.872 225.098,131.205 224.5,132.5C 228.039,131.116 230.706,128.283 232.5,124C 236.797,122.908 241.131,122.575 245.5,123C 248.915,127.523 252.915,131.356 257.5,134.5C 252.576,133.8 248.909,135.467 246.5,139.5C 246.44,138.957 246.107,138.624 245.5,138.5C 243.974,138.994 242.641,139.661 241.5,140.5C 240.662,140.842 240.328,141.508 240.5,142.5C 239.406,140.164 238.073,140.164 236.5,142.5C 235.504,142.414 234.671,142.748 234,143.5C 233.71,145.044 233.044,146.377 232,147.5C 231.147,149.948 231.647,150.614 233.5,149.5C 236.721,150.573 239.888,150.573 243,149.5C 243.232,150.737 243.732,151.737 244.5,152.5C 245.228,154.735 246.561,156.568 248.5,158C 248.043,158.414 247.709,158.914 247.5,159.5C 249.039,162.489 250.039,165.656 250.5,169C 254.055,169.056 257.389,168.222 260.5,166.5C 260.973,165.094 261.973,164.427 263.5,164.5C 265.404,164.738 266.738,165.738 267.5,167.5C 267.555,174.722 264.889,180.722 259.5,185.5C 256.833,186.167 255.167,187.833 254.5,190.5C 252.557,195.472 248.89,197.306 243.5,196C 242.584,195.626 241.75,195.126 241,194.5C 236.241,198.416 232.741,202.75 230.5,207.5C 229.167,207.5 227.833,207.5 226.5,207.5C 226.5,208.5 226.5,209.5 226.5,210.5C 224.876,210.36 223.71,211.027 223,212.5C 222.51,211.207 222.343,209.873 222.5,208.5C 223.209,207.596 224.209,207.263 225.5,207.5C 225.351,206.448 225.517,205.448 226,204.5C 229.663,200.696 232.996,196.696 236,192.5C 240.289,185.364 243.455,177.531 245.5,169C 245.111,164.669 243.611,160.836 241,157.5C 238.869,155.456 236.369,154.623 233.5,155C 234.056,155.383 234.389,155.883 234.5,156.5C 234.631,157.376 234.298,158.043 233.5,158.5C 230.516,157.035 227.849,157.369 225.5,159.5C 220.849,160.326 217.516,162.826 215.5,167C 215.667,167.5 215.833,168 216,168.5C 220.152,163.655 225.318,161.822 231.5,163C 232.517,164.049 232.684,165.216 232,166.5C 231.282,165.549 230.449,165.383 229.5,166C 227.294,168.037 225.294,170.203 223.5,172.5C 221.999,171.557 220.665,171.891 219.5,173.5C 218.075,174.922 217.075,176.589 216.5,178.5C 215.662,178.842 215.328,179.508 215.5,180.5C 218.521,183.636 219.521,187.302 218.5,191.5C 217.583,190.873 216.583,190.539 215.5,190.5C 212.853,189.042 210.687,189.708 209,192.5C 207.883,192.335 206.716,192.002 205.5,191.5C 202.922,192.642 201.922,194.309 202.5,196.5C 201.207,198.296 199.707,199.963 198,201.5C 196.991,203.025 196.491,204.692 196.5,206.5C 195.427,207.251 195.26,208.251 196,209.5C 196.333,209.167 196.667,208.833 197,208.5C 197.483,209.448 197.649,210.448 197.5,211.5C 195.533,211.739 193.699,211.406 192,210.5C 191.29,200.129 194.457,191.129 201.5,183.5C 203.706,182.26 205.539,180.593 207,178.5C 207.71,179.973 208.876,180.64 210.5,180.5C 213.91,178.778 214.243,176.611 211.5,174C 211.957,173.586 212.291,173.086 212.5,172.5C 209.423,169.86 206.423,169.86 203.5,172.5C 202.895,174.974 201.895,177.307 200.5,179.5C 195.906,185.682 192.073,192.348 189,199.5C 188.333,203.5 188.333,207.5 189,211.5C 191.505,213.954 194.339,214.62 197.5,213.5C 197.875,215.698 198.542,217.698 199.5,219.5C 197.333,220.641 195,221.641 192.5,222.5C 196.14,223.959 199.473,223.626 202.5,221.5C 203.391,222.11 204.391,222.443 205.5,222.5C 208.379,225.031 207.712,226.031 203.5,225.5C 203.5,226.5 203.5,227.5 203.5,228.5C 196.599,229.992 189.599,230.659 182.5,230.5C 177.5,230.5 172.5,230.5 167.5,230.5C 142.464,230.717 117.464,229.884 92.5,228C 91.9011,226.378 91.2344,224.878 90.5,223.5C 89.2151,225.659 87.5485,226.326 85.5,225.5C 85.7869,223.879 86.7869,222.879 88.5,222.5C 89.4742,220.257 89.8076,217.924 89.5,215.5C 89.5,214.833 89.1667,214.5 88.5,214.5C 88.1583,213.662 87.4916,213.328 86.5,213.5C 86.3505,212.448 86.5172,211.448 87,210.5C 88.1707,212.616 89.6707,213.282 91.5,212.5C 90.4717,210.639 88.9717,209.305 87,208.5C 86.502,205.518 86.3354,202.518 86.5,199.5C 86.1866,196.753 86.52,194.086 87.5,191.5C 88.5,192.167 89.5,192.833 90.5,193.5C 90.8762,190.611 92.3762,188.611 95,187.5C 94.9813,189.107 94.8146,190.774 94.5,192.5C 92.8219,195.632 93.4886,198.132 96.5,200C 95.6721,200.915 94.6721,201.581 93.5,202C 94.4162,202.374 95.2496,202.874 96,203.5C 98.4166,199.669 100.583,195.669 102.5,191.5C 101.284,190.904 99.9506,190.737 98.5,191C 99.056,190.617 99.3893,190.117 99.5,189.5C 99.5,189.167 99.5,188.833 99.5,188.5C 101.201,188.034 102.701,188.034 104,188.5C 104.21,186.942 104.71,185.609 105.5,184.5C 107.942,184.881 108.609,184.214 107.5,182.5C 108.518,181.148 109.851,180.148 111.5,179.5C 111.291,178.914 110.957,178.414 110.5,178C 112.439,177.092 113.439,175.592 113.5,173.5C 113.5,173.167 113.5,172.833 113.5,172.5C 113.833,172.5 114.167,172.5 114.5,172.5C 115.685,171.229 117.685,170.229 120.5,169.5C 120.5,168.167 120.5,166.833 120.5,165.5C 121.873,165.657 123.207,165.49 124.5,165C 123.167,164.333 123.167,163.667 124.5,163C 125.448,162.517 126.448,162.351 127.5,162.5C 127.5,161.5 127.5,160.5 127.5,159.5C 129.076,158.717 130.409,157.55 131.5,156C 132.448,155.517 133.448,155.351 134.5,155.5C 134.435,155.938 134.601,156.272 135,156.5C 135.374,155.584 135.874,154.75 136.5,154C 139,152.833 141.5,151.667 144,150.5C 144.494,148.866 144.66,147.199 144.5,145.5C 144.833,145.5 145.167,145.5 145.5,145.5C 146.234,146.708 146.567,148.041 146.5,149.5C 151.629,147.435 156.629,145.102 161.5,142.5C 157.696,140.565 153.696,139.232 149.5,138.5C 152.625,137.521 155.958,137.187 159.5,137.5C 162.38,143.124 164.214,142.791 165,136.5C 165.483,137.448 165.649,138.448 165.5,139.5C 166.833,139.5 168.167,139.5 169.5,139.5C 170.303,140.423 170.47,141.423 170,142.5C 169.107,141.289 168.274,141.289 167.5,142.5C 170.05,147.472 173.717,148.639 178.5,146C 176.651,144.907 174.984,143.574 173.5,142C 173.833,141.833 174.167,141.667 174.5,141.5C 177.437,143.813 180.77,145.146 184.5,145.5C 184.5,144.167 184.5,142.833 184.5,141.5C 181.422,140.798 178.422,139.798 175.5,138.5C 174.558,138.608 173.725,138.941 173,139.5C 172.292,138.619 171.458,137.953 170.5,137.5C 169.737,136.732 168.737,136.232 167.5,136C 168.056,135.617 168.389,135.117 168.5,134.5C 169.695,134.134 170.361,133.301 170.5,132C 168.67,127.771 168.337,123.605 169.5,119.5C 169.181,121.75 169.681,123.75 171,125.5C 171.36,123.392 172.027,121.392 173,119.5C 173.308,120.308 173.808,120.975 174.5,121.5C 177.202,119.117 180.202,117.617 183.5,117C 179.786,119.858 177.12,123.358 175.5,127.5C 179.571,127.766 183.571,127.433 187.5,126.5C 188.833,127.167 188.833,127.833 187.5,128.5C 185.833,129.333 184.167,130.167 182.5,131C 185.783,131.743 188.783,131.076 191.5,129C 194.357,124.433 195.024,124.933 193.5,130.5C 191.417,131.959 189.25,133.292 187,134.5C 186.312,135.332 186.479,135.998 187.5,136.5C 190.829,134.494 193.829,132.161 196.5,129.5C 197.525,129.897 197.692,130.563 197,131.5C 192.64,137.026 188.474,142.693 184.5,148.5C 184.667,148.833 184.833,149.167 185,149.5C 186.192,147.35 187.692,146.683 189.5,147.5C 193.121,150.783 196.787,154.116 200.5,157.5C 201.521,156.998 201.688,156.332 201,155.5C 198.002,153.667 195.502,151.334 193.5,148.5C 198.925,142.01 204.591,135.677 210.5,129.5C 211.721,130.028 212.887,130.695 214,131.5C 213.088,127.761 210.588,125.427 206.5,124.5C 205.448,122.345 206.114,122.012 208.5,123.5C 209.5,123.167 210.167,122.5 210.5,121.5C 208.579,120.359 206.579,120.192 204.5,121C 203,123.167 201.5,125.333 200,127.5C 199.31,128.738 198.81,128.738 198.5,127.5C 200.353,120.482 197.52,116.482 190,115.5C 190.404,114.759 191.238,114.093 192.5,113.5C 191.975,112.808 191.308,112.308 190.5,112C 186.294,111.739 182.127,111.239 178,110.5C 176.37,111.713 174.536,112.546 172.5,113C 171.391,114.876 170.391,116.709 169.5,118.5C 170.357,115.451 170.357,112.451 169.5,109.5C 172.818,105.682 176.318,102.015 180,98.5C 182.668,93.4946 184.168,88.1613 184.5,82.5C 179.106,81.8865 174.606,79.5531 171,75.5C 168.875,72.8262 169.042,70.4929 171.5,68.5 Z M 158.5,202.5 C 159.833,202.5 161.167,202.5 162.5,202.5C 163.572,204.84 165.239,205.173 167.5,203.5C 168.627,205.269 168.127,206.603 166,207.5C 165.174,205.595 164.007,205.261 162.5,206.5C 163.471,207.962 163.138,209.295 161.5,210.5C 163.576,211.1 165.576,211.433 167.5,211.5C 165.833,212.167 164.167,212.833 162.5,213.5C 164.633,215.091 166.299,217.091 167.5,219.5C 169.006,220.747 170.506,220.747 172,219.5C 172.5,220 173,220.5 173.5,221C 166.267,222.133 158.934,222.633 151.5,222.5C 144.658,222.5 137.991,222.166 131.5,221.5C 132.882,220.199 134.548,219.366 136.5,219C 139.616,215.382 142.949,211.882 146.5,208.5C 147.127,207.583 147.461,206.583 147.5,205.5C 149.124,205.64 150.29,204.973 151,203.5C 151.308,204.308 151.808,204.975 152.5,205.5C 154.026,205.006 155.359,204.339 156.5,203.5C 157.492,203.672 158.158,203.338 158.5,202.5 Z"/></g>
<g><path style="opacity:1" fill="#9d9fa6" d="M 193.5,160.5 C 193.565,160.938 193.399,161.272 193,161.5C 189.514,156.669 185.014,154.502 179.5,155C 180.5,154.667 181.5,154.333 182.5,154C 181.263,153.768 180.263,153.268 179.5,152.5C 185.164,152.711 189.831,155.377 193.5,160.5 Z"/></g>
<g><path style="opacity:1" fill="#d7d8db" d="M 164.5,154.5 C 164.244,152.088 165.244,150.421 167.5,149.5C 174.304,154.733 173.304,156.399 164.5,154.5 Z"/></g>
<g><path style="opacity:1" fill="#95969d" d="M 164.5,154.5 C 163.047,154.929 161.381,155.096 159.5,155C 160.044,155.717 160.711,156.217 161.5,156.5C 161.631,157.239 161.464,157.906 161,158.5C 159.124,157.391 157.291,156.391 155.5,155.5C 156.919,153.073 157.919,150.406 158.5,147.5C 160.761,146.318 162.595,144.651 164,142.5C 165.62,144.241 167.12,146.075 168.5,148C 167.004,148.507 165.837,148.007 165,146.5C 164.276,148.959 162.943,149.959 161,149.5C 161.077,151.772 162.243,153.438 164.5,154.5 Z"/></g>
<g><path style="opacity:1" fill="#ebeced" d="M 212.5,146.5 C 218.113,145.079 220.28,147.079 219,152.5C 217.915,160.749 213.415,166.083 205.5,168.5C 205.167,168.167 204.833,167.833 204.5,167.5C 206.805,160.235 209.472,153.235 212.5,146.5 Z"/></g>
<g><path style="opacity:1" fill="#abafb7" d="M 214.5,136.5 C 215.043,136.56 215.376,136.893 215.5,137.5C 214.902,138.795 214.402,140.128 214,141.5C 209.621,145.277 205.954,149.61 203,154.5C 203.642,152.193 204.642,149.859 206,147.5C 209.049,143.957 211.882,140.291 214.5,136.5 Z"/></g>
<g><path style="opacity:1" fill="#838591" d="M 212.5,133.5 C 213.239,133.369 213.906,133.536 214.5,134C 209.667,140.167 204.833,146.333 200,152.5C 203.43,145.861 207.597,139.528 212.5,133.5 Z"/></g>
<g><path style="opacity:1" fill="#d4d4d7" d="M 170.5,137.5 C 171.458,137.953 172.292,138.619 173,139.5C 173.725,138.941 174.558,138.608 175.5,138.5C 178.422,139.798 181.422,140.798 184.5,141.5C 184.5,142.833 184.5,144.167 184.5,145.5C 180.77,145.146 177.437,143.813 174.5,141.5C 174.167,141.667 173.833,141.833 173.5,142C 174.984,143.574 176.651,144.907 178.5,146C 173.717,148.639 170.05,147.472 167.5,142.5C 168.274,141.289 169.107,141.289 170,142.5C 170.47,141.423 170.303,140.423 169.5,139.5C 169.328,138.508 169.662,137.842 170.5,137.5 Z"/></g>
<g><path style="opacity:1" fill="#a0a3ad" d="M 207.5,127.5 C 208.71,127.932 209.71,128.599 210.5,129.5C 204.591,135.677 198.925,142.01 193.5,148.5C 198.425,141.643 203.092,134.643 207.5,127.5 Z"/></g>
<g><path style="opacity:1" fill="#81828e" d="M 209.5,131.5 C 210.239,131.369 210.906,131.536 211.5,132C 206.955,138.256 202.288,144.423 197.5,150.5C 196.479,149.998 196.312,149.332 197,148.5C 201.384,142.956 205.551,137.289 209.5,131.5 Z"/></g>
<g><path style="opacity:1" fill="#dddedf" d="M 222.5,124.5 C 220.499,130.837 218.499,137.171 216.5,143.5C 215.761,143.631 215.094,143.464 214.5,143C 216.582,137.271 218.415,131.438 220,125.5C 220.671,124.748 221.504,124.414 222.5,124.5 Z"/></g>
<g><path style="opacity:1" fill="#1d1e21" d="M 207.5,127.5 C 203.092,134.643 198.425,141.643 193.5,148.5C 191.141,147.611 190.975,146.278 193,144.5C 196,140.167 199,135.833 202,131.5C 203.451,129.536 205.284,128.203 207.5,127.5 Z"/></g>
<g><path style="opacity:1" fill="#7c7d84" d="M 206.5,124.5 C 204.983,124.511 203.816,125.177 203,126.5C 197.98,133.217 193.48,140.217 189.5,147.5C 187.692,146.683 186.192,147.35 185,149.5C 184.833,149.167 184.667,148.833 184.5,148.5C 188.474,142.693 192.64,137.026 197,131.5C 197.692,130.563 197.525,129.897 196.5,129.5C 196.833,128.5 197.5,127.833 198.5,127.5C 198.81,128.738 199.31,128.738 200,127.5C 201.5,125.333 203,123.167 204.5,121C 206.579,120.192 208.579,120.359 210.5,121.5C 210.167,122.5 209.5,123.167 208.5,123.5C 206.114,122.012 205.448,122.345 206.5,124.5 Z"/></g>
<g><path style="opacity:1" fill="#686a71" d="M 222.5,124.5 C 223.88,124.962 224.547,125.962 224.5,127.5C 223.142,132.933 221.475,138.266 219.5,143.5C 218.575,144.562 217.575,144.562 216.5,143.5C 218.499,137.171 220.499,130.837 222.5,124.5 Z"/></g>
<g><path style="opacity:1" fill="#d6d6d9" d="M 206.5,124.5 C 210.588,125.427 213.088,127.761 214,131.5C 212.887,130.695 211.721,130.028 210.5,129.5C 209.71,128.599 208.71,127.932 207.5,127.5C 205.284,128.203 203.451,129.536 202,131.5C 199,135.833 196,140.167 193,144.5C 190.975,146.278 191.141,147.611 193.5,148.5C 195.502,151.334 198.002,153.667 201,155.5C 201.688,156.332 201.521,156.998 200.5,157.5C 196.787,154.116 193.121,150.783 189.5,147.5C 193.48,140.217 197.98,133.217 203,126.5C 203.816,125.177 204.983,124.511 206.5,124.5 Z"/></g>
<g><path style="opacity:1" fill="#898b94" d="M 220.5,119.5 C 222.39,120.18 224.39,120.347 226.5,120C 228.245,121.692 228.578,123.525 227.5,125.5C 225.293,123.317 222.626,121.984 219.5,121.5C 219.863,120.817 220.196,120.15 220.5,119.5 Z"/></g>
<g><path style="opacity:1" fill="#b6b8be" d="M 200.5,105.5 C 199.833,105.5 199.5,105.833 199.5,106.5C 196.187,105.955 192.854,105.455 189.5,105C 187.382,104.74 185.716,103.74 184.5,102C 189.455,102.374 194.455,103.04 199.5,104C 200.056,104.383 200.389,104.883 200.5,105.5 Z"/></g>
<g><path style="opacity:1" fill="#464851" d="M 179.5,152.5 C 180.263,153.268 181.263,153.768 182.5,154C 181.5,154.333 180.5,154.667 179.5,155C 185.014,154.502 189.514,156.669 193,161.5C 193.399,161.272 193.565,160.938 193.5,160.5C 195.048,160.821 195.715,161.821 195.5,163.5C 194.548,167.12 192.215,168.787 188.5,168.5C 188.5,167.833 188.5,167.167 188.5,166.5C 192.31,165.754 192.31,164.754 188.5,163.5C 189.512,161.9 189.012,160.566 187,159.5C 183.99,162.677 180.824,165.677 177.5,168.5C 177.567,167.041 177.234,165.708 176.5,164.5C 178.937,164.114 180.937,162.947 182.5,161C 180.62,161.51 178.787,161.343 177,160.5C 175.906,157.063 176.74,154.396 179.5,152.5 Z"/></g>
<g><path style="opacity:1" fill="#d4d5d8" d="M 148.5,160.5 C 146.5,161.167 144.5,161.833 142.5,162.5C 136.455,165.278 130.955,168.944 126,173.5C 119.097,180.967 113.43,189.301 109,198.5C 105.736,212.093 110.236,215.093 122.5,207.5C 129.536,201.465 135.869,194.798 141.5,187.5C 142.002,185.915 143.002,185.415 144.5,186C 139.018,194.644 132.351,202.144 124.5,208.5C 123.311,209.429 121.978,209.762 120.5,209.5C 120.5,210.5 120.5,211.5 120.5,212.5C 117.09,212.782 113.757,213.449 110.5,214.5C 108.941,213.926 107.441,213.26 106,212.5C 103.513,205.056 104.513,198.056 109,191.5C 116.5,177.333 127.333,166.5 141.5,159C 143.5,158.333 145.5,158.333 147.5,159C 148.056,159.383 148.389,159.883 148.5,160.5 Z"/></g>
<g><path style="opacity:1" fill="#6c6e78" d="M 155.5,155.5 C 157.291,156.391 159.124,157.391 161,158.5C 161.464,157.906 161.631,157.239 161.5,156.5C 163.305,157.237 164.971,158.237 166.5,159.5C 165.372,160.262 164.205,160.929 163,161.5C 160.263,160.39 157.429,160.223 154.5,161C 155.328,161.915 156.328,162.581 157.5,163C 155.527,163.495 153.527,163.662 151.5,163.5C 152.076,161.217 151.076,160.883 148.5,162.5C 146.5,162.5 144.5,162.5 142.5,162.5C 144.5,161.833 146.5,161.167 148.5,160.5C 149.833,160.5 151.167,160.5 152.5,160.5C 152.721,158.336 153.721,156.67 155.5,155.5 Z"/></g>
<g><path style="opacity:0.357" fill="#57575f" d="M 127.5,159.5 C 127.5,160.5 127.5,161.5 127.5,162.5C 126.448,162.351 125.448,162.517 124.5,163C 123.167,163.667 123.167,164.333 124.5,165C 123.207,165.49 121.873,165.657 120.5,165.5C 120.5,165.167 120.5,164.833 120.5,164.5C 122.048,164.179 122.715,163.179 122.5,161.5C 124.284,161.107 125.95,160.441 127.5,159.5 Z"/></g>
<g><path style="opacity:1" fill="#d4d4d7" d="M 176.5,164.5 C 177.234,165.708 177.567,167.041 177.5,168.5C 176.855,169.812 175.855,170.812 174.5,171.5C 173.813,169.726 172.98,168.059 172,166.5C 170.939,169.562 169.106,172.062 166.5,174C 165.668,174.688 165.002,174.521 164.5,173.5C 166.316,172.185 167.983,170.685 169.5,169C 167.953,168.667 166.62,169.167 165.5,170.5C 164.701,163.165 168.035,160.665 175.5,163C 176.056,163.383 176.389,163.883 176.5,164.5 Z"/></g>
<g><path style="opacity:1" fill="#d5d6d9" d="M 188.5,163.5 C 192.31,164.754 192.31,165.754 188.5,166.5C 187.375,165.652 187.375,164.652 188.5,163.5 Z"/></g>
<g><path style="opacity:1" fill="#d8d9dc" d="M 151.5,163.5 C 154.902,165.954 158.902,168.62 163.5,171.5C 163.333,171.833 163.167,172.167 163,172.5C 159.595,170.147 155.762,168.98 151.5,169C 148.395,167.633 147.395,165.467 148.5,162.5C 151.076,160.883 152.076,161.217 151.5,163.5 Z"/></g>
<g><path style="opacity:1" fill="#878894" d="M 144.5,166.5 C 146.886,167.373 148.886,168.873 150.5,171C 149.833,171.667 149.167,171.667 148.5,171C 146.808,169.693 145.475,168.193 144.5,166.5 Z"/></g>
<g><path style="opacity:0.035" fill="#5f636a" d="M 119.5,165.5 C 119.833,165.5 120.167,165.5 120.5,165.5C 120.5,166.833 120.5,168.167 120.5,169.5C 117.685,170.229 115.685,171.229 114.5,172.5C 114.5,172.167 114.5,171.833 114.5,171.5C 115.167,171.5 115.5,171.167 115.5,170.5C 115.328,169.508 115.662,168.842 116.5,168.5C 117.167,168.5 117.5,168.167 117.5,167.5C 118.833,167.5 119.5,166.833 119.5,165.5 Z"/></g>
<g><path style="opacity:1" fill="#80848d" d="M 143.5,170.5 C 143.897,169.475 144.563,169.308 145.5,170C 148.719,172.309 150.385,175.142 150.5,178.5C 148.86,175.196 146.527,172.529 143.5,170.5 Z"/></g>
<g><path style="opacity:1" fill="#6d6d79" d="M 143.5,174.5 C 142.833,174.5 142.167,174.5 141.5,174.5C 140.708,173.033 140.708,171.7 141.5,170.5C 143.111,171.32 143.778,172.654 143.5,174.5 Z"/></g>
<g><path style="opacity:1" fill="#97999e" d="M 183.5,170.5 C 182.189,173.135 180.522,175.469 178.5,177.5C 178.565,177.062 178.399,176.728 178,176.5C 176.5,178 175,179.5 173.5,181C 172.365,181.749 171.365,181.583 170.5,180.5C 172.324,177.669 174.824,175.669 178,174.5C 178.494,172.866 178.66,171.199 178.5,169.5C 180.216,169.629 181.883,169.962 183.5,170.5 Z"/></g>
<g><path style="opacity:1" fill="#e4e5e7" d="M 141.5,174.5 C 142.167,174.5 142.833,174.5 143.5,174.5C 144.767,176.773 146.433,178.773 148.5,180.5C 147.675,181.386 146.675,181.719 145.5,181.5C 140.005,179.777 134.338,179.444 128.5,180.5C 127.702,180.043 127.369,179.376 127.5,178.5C 132.079,176.855 136.746,175.522 141.5,174.5 Z"/></g>
<g><path style="opacity:1" fill="#bdc1c7" d="M 189.5,174.5 C 190.097,173.861 190.93,173.528 192,173.5C 194.737,173.376 195.571,174.376 194.5,176.5C 192.925,175.544 191.258,174.877 189.5,174.5 Z"/></g>
<g><path style="opacity:1" fill="#91949c" d="M 153.5,173.5 C 155.662,173.897 156.995,175.231 157.5,177.5C 158.167,176.5 158.833,175.5 159.5,174.5C 161.924,175.423 163.924,176.923 165.5,179C 162.169,178.182 158.836,178.349 155.5,179.5C 155.386,177.282 154.72,175.282 153.5,173.5 Z"/></g>
<g><path style="opacity:1" fill="#bebfc3" d="M 210.5,180.5 C 209.909,179.849 209.243,179.182 208.5,178.5C 209.915,175.788 209.581,175.288 207.5,177C 206.167,177.667 204.833,177.667 203.5,177C 204.413,175.586 204.413,174.086 203.5,172.5C 206.423,169.86 209.423,169.86 212.5,172.5C 212.291,173.086 211.957,173.586 211.5,174C 214.243,176.611 213.91,178.778 210.5,180.5 Z"/></g>
<g><path style="opacity:1" fill="#dcdde0" d="M 219.5,173.5 C 220.525,173.897 220.692,174.563 220,175.5C 219,176.833 218,178.167 217,179.5C 216.601,179.272 216.435,178.938 216.5,178.5C 217.075,176.589 218.075,174.922 219.5,173.5 Z"/></g>
<g><path style="opacity:1" fill="#d4d4d6" d="M 229.5,171.5 C 230.239,171.369 230.906,171.536 231.5,172C 230.809,173.067 230.309,174.234 230,175.5C 227.833,176.488 226,177.821 224.5,179.5C 223.761,179.631 223.094,179.464 222.5,179C 225.067,176.604 227.4,174.104 229.5,171.5 Z"/></g>
<g><path style="opacity:1" fill="#1c1e27" d="M 234.5,156.5 C 236.093,157.348 237.26,158.681 238,160.5C 238.333,160.167 238.667,159.833 239,159.5C 238.981,161.107 238.815,162.774 238.5,164.5C 239.552,164.351 240.552,164.517 241.5,165C 239.789,166.133 239.289,167.633 240,169.5C 241.065,167.604 241.898,167.437 242.5,169C 241.43,170.709 240.097,172.209 238.5,173.5C 239.274,174.711 240.107,174.711 241,173.5C 241.667,174.167 241.667,174.833 241,175.5C 235.443,177.639 235.276,178.806 240.5,179C 238.021,179.879 236.021,181.379 234.5,183.5C 235.716,184.096 237.049,184.263 238.5,184C 236.781,185.057 234.947,185.89 233,186.5C 232.312,187.332 232.479,187.998 233.5,188.5C 234.396,187.494 235.062,187.494 235.5,188.5C 234.176,189.935 232.51,190.935 230.5,191.5C 231.167,192.167 231.833,192.833 232.5,193.5C 230.659,194.23 228.825,194.897 227,195.5C 226.544,196.744 227.044,197.577 228.5,198C 226.899,198.273 225.399,198.773 224,199.5C 223.544,200.744 224.044,201.577 225.5,202C 223.866,202.494 222.199,202.66 220.5,202.5C 220.36,204.124 221.027,205.29 222.5,206C 220.423,206.192 218.423,206.692 216.5,207.5C 217.376,208.251 218.376,208.751 219.5,209C 217.633,209.919 215.633,210.419 213.5,210.5C 214.167,211.167 214.833,211.833 215.5,212.5C 213.167,213.167 210.833,213.833 208.5,214.5C 209.025,215.192 209.692,215.692 210.5,216C 208.965,216.496 207.465,216.33 206,215.5C 205.333,216.833 204.667,218.167 204,219.5C 203,218.833 202,218.167 201,217.5C 199.97,217.836 199.47,218.503 199.5,219.5C 198.542,217.698 197.875,215.698 197.5,213.5C 211.435,207.697 221.935,198.03 229,184.5C 232.43,178.67 234.597,172.67 235.5,166.5C 234.382,161.054 231.049,158.72 225.5,159.5C 227.849,157.369 230.516,157.035 233.5,158.5C 234.298,158.043 234.631,157.376 234.5,156.5 Z"/></g>
<g><path style="opacity:1" fill="#c5c6c9" d="M 260.5,166.5 C 261.552,166.351 262.552,166.517 263.5,167C 261.04,168.458 258.873,170.291 257,172.5C 254.72,176.447 252.053,180.113 249,183.5C 248.571,187.102 246.737,189.768 243.5,191.5C 242.614,190.675 242.281,189.675 242.5,188.5C 243.5,188.5 244.5,188.5 245.5,188.5C 245.338,186.473 245.505,184.473 246,182.5C 250.017,176.321 254.851,170.988 260.5,166.5 Z"/></g>
<g><path style="opacity:1" fill="#454751" d="M 203.5,172.5 C 204.413,174.086 204.413,175.586 203.5,177C 204.833,177.667 206.167,177.667 207.5,177C 209.581,175.288 209.915,175.788 208.5,178.5C 209.243,179.182 209.909,179.849 210.5,180.5C 208.876,180.64 207.71,179.973 207,178.5C 205.539,180.593 203.706,182.26 201.5,183.5C 201.768,181.901 201.434,180.568 200.5,179.5C 201.895,177.307 202.895,174.974 203.5,172.5 Z"/></g>
<g><path style="opacity:1" fill="#727377" d="M 223.5,172.5 C 222.284,174.48 221.451,176.48 221,178.5C 223.436,175.553 226.269,173.22 229.5,171.5C 227.4,174.104 225.067,176.604 222.5,179C 223.094,179.464 223.761,179.631 224.5,179.5C 225.847,178.972 227.181,178.805 228.5,179C 226.263,181.03 224.763,183.53 224,186.5C 222.644,187.38 221.144,187.714 219.5,187.5C 221.562,183.294 220.229,180.961 215.5,180.5C 215.328,179.508 215.662,178.842 216.5,178.5C 216.435,178.938 216.601,179.272 217,179.5C 218,178.167 219,176.833 220,175.5C 220.692,174.563 220.525,173.897 219.5,173.5C 220.665,171.891 221.999,171.557 223.5,172.5 Z"/></g>
<g><path style="opacity:1" fill="#6c6f78" d="M 127.5,178.5 C 127.369,179.376 127.702,180.043 128.5,180.5C 134.338,179.444 140.005,179.777 145.5,181.5C 137.588,180.999 129.921,181.999 122.5,184.5C 121.5,184.333 120.5,184.167 119.5,184C 120.685,182.647 122.019,181.48 123.5,180.5C 125.838,182.011 126.504,181.677 125.5,179.5C 125.957,178.702 126.624,178.369 127.5,178.5 Z"/></g>
<g><path style="opacity:1" fill="#dedee1" d="M 181.5,181.5 C 182.675,181.281 183.675,181.614 184.5,182.5C 186.503,184.133 187.836,186.133 188.5,188.5C 185.715,188.067 183.381,186.734 181.5,184.5C 180.438,183.575 180.438,182.575 181.5,181.5 Z"/></g>
<g><path style="opacity:1" fill="#d1d2d5" d="M 225.5,159.5 C 231.049,158.72 234.382,161.054 235.5,166.5C 234.597,172.67 232.43,178.67 229,184.5C 221.935,198.03 211.435,207.697 197.5,213.5C 194.339,214.62 191.505,213.954 189,211.5C 188.333,207.5 188.333,203.5 189,199.5C 192.073,192.348 195.906,185.682 200.5,179.5C 201.434,180.568 201.768,181.901 201.5,183.5C 194.457,191.129 191.29,200.129 192,210.5C 193.699,211.406 195.533,211.739 197.5,211.5C 198.492,211.672 199.158,211.338 199.5,210.5C 208.96,205.883 216.793,199.217 223,190.5C 227.382,184.57 230.549,178.07 232.5,171C 231.96,168.207 230.96,168.374 229.5,171.5C 226.269,173.22 223.436,175.553 221,178.5C 221.451,176.48 222.284,174.48 223.5,172.5C 225.294,170.203 227.294,168.037 229.5,166C 230.449,165.383 231.282,165.549 232,166.5C 232.684,165.216 232.517,164.049 231.5,163C 225.318,161.822 220.152,163.655 216,168.5C 215.833,168 215.667,167.5 215.5,167C 217.516,162.826 220.849,160.326 225.5,159.5 Z"/></g>
<g><path style="opacity:0.192" fill="#74767e" d="M 112.5,173.5 C 112.833,173.5 113.167,173.5 113.5,173.5C 113.439,175.592 112.439,177.092 110.5,178C 110.957,178.414 111.291,178.914 111.5,179.5C 109.851,180.148 108.518,181.148 107.5,182.5C 108.609,184.214 107.942,184.881 105.5,184.5C 106.234,183.292 106.567,181.959 106.5,180.5C 107.167,180.5 107.5,180.167 107.5,179.5C 108.833,179.5 109.5,178.833 109.5,177.5C 109.5,177.167 109.5,176.833 109.5,176.5C 110.167,176.5 110.5,176.167 110.5,175.5C 111.833,175.5 112.5,174.833 112.5,173.5 Z"/></g>
<g><path style="opacity:1" fill="#c8c9cd" d="M 164.5,182.5 C 165.5,182.5 166.5,182.5 167.5,182.5C 166.754,186.31 165.754,186.31 164.5,182.5 Z"/></g>
<g><path style="opacity:1" fill="#d7d7da" d="M 178.5,177.5 C 180.522,175.469 182.189,173.135 183.5,170.5C 184.635,168.787 186.302,168.12 188.5,168.5C 192.215,168.787 194.548,167.12 195.5,163.5C 197.318,161.922 198.318,162.422 198.5,165C 198.357,167.151 197.357,168.818 195.5,170C 192.447,170.179 189.447,170.679 186.5,171.5C 182.354,177.48 177.354,182.646 171.5,187C 164.989,190.46 158.655,190.294 152.5,186.5C 157.798,185.992 163.131,185.825 168.5,186C 172.613,184.052 175.946,181.219 178.5,177.5 Z"/></g>
<g><path style="opacity:1" fill="#d7d8db" d="M 178.5,184.5 C 180.463,185.96 182.296,187.627 184,189.5C 184.688,190.332 184.521,190.998 183.5,191.5C 181.35,189.851 179.35,188.018 177.5,186C 178.056,185.617 178.389,185.117 178.5,184.5 Z"/></g>
<g><path style="opacity:1" fill="#3c3d44" d="M 199.5,210.5 C 198.833,210.5 198.5,210.167 198.5,209.5C 206.243,207.609 209.909,202.609 209.5,194.5C 210.167,194.5 210.5,194.833 210.5,195.5C 209.859,198.221 209.359,200.888 209,203.5C 210.707,201.963 212.207,200.296 213.5,198.5C 216.347,196.382 217.013,193.716 215.5,190.5C 216.583,190.539 217.583,190.873 218.5,191.5C 219.521,187.302 218.521,183.636 215.5,180.5C 220.229,180.961 221.562,183.294 219.5,187.5C 221.144,187.714 222.644,187.38 224,186.5C 224.763,183.53 226.263,181.03 228.5,179C 227.181,178.805 225.847,178.972 224.5,179.5C 226,177.821 227.833,176.488 230,175.5C 230.309,174.234 230.809,173.067 231.5,172C 230.906,171.536 230.239,171.369 229.5,171.5C 230.96,168.374 231.96,168.207 232.5,171C 230.549,178.07 227.382,184.57 223,190.5C 216.793,199.217 208.96,205.883 199.5,210.5 Z"/></g>
<g><path style="opacity:0.31" fill="#3a393e" d="M 80.5,188.5 C 81.4013,189.29 82.0679,190.29 82.5,191.5C 81.1667,191.5 79.8333,191.5 78.5,191.5C 78.2852,189.821 78.9519,188.821 80.5,188.5 Z"/></g>
<g><path style="opacity:0.024" fill="#767780" d="M 259.5,185.5 C 259.5,186.167 259.5,186.833 259.5,187.5C 257.646,188.241 255.979,189.241 254.5,190.5C 255.167,187.833 256.833,186.167 259.5,185.5 Z"/></g>
<g><path style="opacity:1" fill="#95969e" d="M 152.5,190.5 C 155.325,190.081 157.491,191.081 159,193.5C 159.423,192.044 160.256,191.544 161.5,192C 165.27,195.369 168.103,198.536 170,201.5C 166.779,200.284 164.112,198.284 162,195.5C 160.471,198.064 158.305,199.23 155.5,199C 156.5,198 157.5,197 158.5,196C 157.5,195 156.5,194 155.5,193C 152.902,193.422 150.236,193.422 147.5,193C 149.653,192.901 151.319,192.067 152.5,190.5 Z"/></g>
<g><path style="opacity:1" fill="#686a6f" d="M 215.5,190.5 C 217.013,193.716 216.347,196.382 213.5,198.5C 213.852,195.927 213.352,193.594 212,191.5C 211.79,193.058 211.29,194.391 210.5,195.5C 210.5,194.833 210.167,194.5 209.5,194.5C 205.131,198.313 201.464,203.313 198.5,209.5C 198.5,210.167 198.833,210.5 199.5,210.5C 199.158,211.338 198.492,211.672 197.5,211.5C 197.649,210.448 197.483,209.448 197,208.5C 196.667,208.833 196.333,209.167 196,209.5C 195.26,208.251 195.427,207.251 196.5,206.5C 197.329,207.332 198.162,206.999 199,205.5C 201.448,201.385 204.281,197.552 207.5,194C 205.565,194.058 203.898,194.891 202.5,196.5C 201.922,194.309 202.922,192.642 205.5,191.5C 206.716,192.002 207.883,192.335 209,192.5C 210.687,189.708 212.853,189.042 215.5,190.5 Z"/></g>
<g><path style="opacity:1" fill="#dbdbdf" d="M 134.5,185.5 C 131.012,192.418 125.345,196.084 117.5,196.5C 117.196,195.85 116.863,195.183 116.5,194.5C 119.5,193.667 122.5,192.833 125.5,192C 128.397,189.59 131.397,187.423 134.5,185.5 Z"/></g>
<g><path style="opacity:1" fill="#e6e6e7" d="M 213.5,198.5 C 212.207,200.296 210.707,201.963 209,203.5C 209.359,200.888 209.859,198.221 210.5,195.5C 211.29,194.391 211.79,193.058 212,191.5C 213.352,193.594 213.852,195.927 213.5,198.5 Z"/></g>
<g><path style="opacity:1" fill="#cdcdd0" d="M 98.5,189.5 C 98.8333,189.5 99.1667,189.5 99.5,189.5C 99.3893,190.117 99.056,190.617 98.5,191C 99.9506,190.737 101.284,190.904 102.5,191.5C 100.583,195.669 98.4166,199.669 96,203.5C 95.2496,202.874 94.4162,202.374 93.5,202C 94.6721,201.581 95.6721,200.915 96.5,200C 93.4886,198.132 92.8219,195.632 94.5,192.5C 96.1405,191.853 97.4739,190.853 98.5,189.5 Z"/></g>
<g><path style="opacity:1" fill="#b4b7be" d="M 165.5,190.5 C 167.43,191.763 169.097,193.43 170.5,195.5C 171.5,195.833 172.5,196.167 173.5,196.5C 177.313,195.794 180.98,194.961 184.5,194C 176.3,201.1 169.967,199.933 165.5,190.5 Z"/></g>
<g><path style="opacity:1" fill="#e5e6e6" d="M 209.5,194.5 C 209.909,202.609 206.243,207.609 198.5,209.5C 201.464,203.313 205.131,198.313 209.5,194.5 Z"/></g>
<g><path style="opacity:1" fill="#909198" d="M 145.5,202.5 C 145.5,201.5 145.5,200.5 145.5,199.5C 143.833,199.5 142.167,199.5 140.5,199.5C 141.609,198.71 142.942,198.21 144.5,198C 142.355,197.257 142.189,196.424 144,195.5C 146.501,197.51 147.001,199.843 145.5,202.5 Z"/></g>
<g><path style="opacity:1" fill="#e2e3e3" d="M 121.5,206.5 C 119.287,207.773 116.954,208.773 114.5,209.5C 116.451,205.771 118.784,202.271 121.5,199C 122.635,198.251 123.635,198.417 124.5,199.5C 123.946,202.087 122.946,204.42 121.5,206.5 Z"/></g>
<g><path style="opacity:1" fill="#e1e1e3" d="M 196.5,206.5 C 196.491,204.692 196.991,203.025 198,201.5C 199.707,199.963 201.207,198.296 202.5,196.5C 203.898,194.891 205.565,194.058 207.5,194C 204.281,197.552 201.448,201.385 199,205.5C 198.162,206.999 197.329,207.332 196.5,206.5 Z"/></g>
<g><path style="opacity:0.153" fill="#838385" d="M 83.5,195.5 C 84.0221,197.219 85.0221,198.552 86.5,199.5C 86.3354,202.518 86.502,205.518 87,208.5C 88.9717,209.305 90.4717,210.639 91.5,212.5C 89.6707,213.282 88.1707,212.616 87,210.5C 86.5172,211.448 86.3505,212.448 86.5,213.5C 85.7784,213.082 85.2784,212.416 85,211.5C 82.1461,212.834 79.9795,212.001 78.5,209C 78.9054,208.055 79.572,207.388 80.5,207C 77.5529,206.888 76.2196,205.388 76.5,202.5C 78.2915,202.366 79.9582,202.699 81.5,203.5C 82.2634,199.591 80.9301,198.258 77.5,199.5C 76.5258,197.257 76.1924,194.924 76.5,192.5C 80.3765,192.483 81.0432,193.649 78.5,196C 79.4162,196.374 80.2496,196.874 81,197.5C 81.7083,196.619 82.5416,195.953 83.5,195.5 Z M 81.5,203.5 C 84.3714,202.014 85.7047,203.014 85.5,206.5C 84.1667,206.5 82.8333,206.5 81.5,206.5C 81.5,205.5 81.5,204.5 81.5,203.5 Z"/></g>
<g><path style="opacity:1" fill="#f1b41b" d="M 166.5,202.5 C 165.167,202.5 163.833,202.5 162.5,202.5C 161.167,202.5 159.833,202.5 158.5,202.5C 159.158,201.023 160.825,200.023 163.5,199.5C 164.855,200.188 165.855,201.188 166.5,202.5 Z"/></g>
<g><path style="opacity:1" fill="#d2d2d5" d="M 115.5,199.5 C 116.675,199.281 117.675,199.614 118.5,200.5C 117,202.833 115.5,205.167 114,207.5C 113.31,208.738 112.81,208.738 112.5,207.5C 112.94,204.62 113.94,201.954 115.5,199.5 Z"/></g>
<g><path style="opacity:1" fill="#313238" d="M 134.5,185.5 C 135.158,186.398 135.824,187.398 136.5,188.5C 137.386,187.675 137.719,186.675 137.5,185.5C 139.199,185.527 140.533,186.194 141.5,187.5C 135.869,194.798 129.536,201.465 122.5,207.5C 122.5,206.833 122.167,206.5 121.5,206.5C 122.946,204.42 123.946,202.087 124.5,199.5C 123.635,198.417 122.635,198.251 121.5,199C 118.784,202.271 116.451,205.771 114.5,209.5C 113.325,209.719 112.325,209.386 111.5,208.5C 111.624,207.893 111.957,207.56 112.5,207.5C 112.81,208.738 113.31,208.738 114,207.5C 115.5,205.167 117,202.833 118.5,200.5C 117.675,199.614 116.675,199.281 115.5,199.5C 117.291,198.772 117.958,197.772 117.5,196.5C 125.345,196.084 131.012,192.418 134.5,185.5 Z"/></g>
<g><path style="opacity:1" fill="#e2e3e5" d="M 127.5,195.5 C 128.5,195.5 129.5,195.5 130.5,195.5C 130.082,198.439 128.582,200.772 126,202.5C 125.761,200.041 126.261,197.707 127.5,195.5 Z"/></g>
<g><path style="opacity:0.106" fill="#a3a6ab" d="M 156.5,203.5 C 155.359,204.339 154.026,205.006 152.5,205.5C 151.808,204.975 151.308,204.308 151,203.5C 150.29,204.973 149.124,205.64 147.5,205.5C 148.47,204.371 149.636,203.371 151,202.5C 152.989,203.12 154.822,203.453 156.5,203.5 Z"/></g>
<g><path style="opacity:1" fill="#b8b9bf" d="M 175.5,201.5 C 177.167,201.5 178.833,201.5 180.5,201.5C 180.051,205.12 179.717,208.453 179.5,211.5C 176.365,209.024 175.032,205.691 175.5,201.5 Z"/></g>
<g><path style="opacity:1" fill="#c8c9cc" d="M 140.5,199.5 C 142.167,199.5 143.833,199.5 145.5,199.5C 145.5,200.5 145.5,201.5 145.5,202.5C 142.703,202.967 141.369,204.633 141.5,207.5C 138.5,207.167 137.167,208.5 137.5,211.5C 136.448,211.351 135.448,211.517 134.5,212C 132.087,214.333 129.754,216.667 127.5,219C 123.405,220.57 119.238,222.07 115,223.5C 114.5,223.167 114,222.833 113.5,222.5C 114.325,221.614 115.325,221.281 116.5,221.5C 116.276,217.485 117.443,216.819 120,219.5C 120.667,218.167 121.333,216.833 122,215.5C 123.465,216.33 124.965,216.496 126.5,216C 126.043,215.586 125.709,215.086 125.5,214.5C 127.078,213.702 128.744,213.202 130.5,213C 129.663,211.989 129.33,210.822 129.5,209.5C 131.226,209.815 132.893,209.981 134.5,210C 134.833,209.667 135.167,209.333 135.5,209C 134.692,208.692 134.025,208.192 133.5,207.5C 135.078,206.702 136.744,206.202 138.5,206C 137.044,205.577 136.544,204.744 137,203.5C 138.333,202.167 139.667,202.167 141,203.5C 141.833,202.667 142.667,201.833 143.5,201C 142.551,200.383 141.718,200.549 141,201.5C 140.536,200.906 140.369,200.239 140.5,199.5 Z"/></g>
<g><path style="opacity:1" fill="#c9cacd" d="M 222.5,208.5 C 221.596,209.209 221.263,210.209 221.5,211.5C 218.05,210.756 216.384,212.09 216.5,215.5C 213.05,214.756 211.384,216.09 211.5,219.5C 208.68,219.087 206.68,220.087 205.5,222.5C 204.391,222.443 203.391,222.11 202.5,221.5C 201.778,220.449 200.778,219.782 199.5,219.5C 199.47,218.503 199.97,217.836 201,217.5C 202,218.167 203,218.833 204,219.5C 204.667,218.167 205.333,216.833 206,215.5C 207.465,216.33 208.965,216.496 210.5,216C 209.692,215.692 209.025,215.192 208.5,214.5C 210.833,213.833 213.167,213.167 215.5,212.5C 214.833,211.833 214.167,211.167 213.5,210.5C 215.633,210.419 217.633,209.919 219.5,209C 218.376,208.751 217.376,208.251 216.5,207.5C 218.423,206.692 220.423,206.192 222.5,206C 221.027,205.29 220.36,204.124 220.5,202.5C 222.199,202.66 223.866,202.494 225.5,202C 224.044,201.577 223.544,200.744 224,199.5C 225.399,198.773 226.899,198.273 228.5,198C 227.044,197.577 226.544,196.744 227,195.5C 228.825,194.897 230.659,194.23 232.5,193.5C 231.833,192.833 231.167,192.167 230.5,191.5C 232.51,190.935 234.176,189.935 235.5,188.5C 235.062,187.494 234.396,187.494 233.5,188.5C 232.479,187.998 232.312,187.332 233,186.5C 234.947,185.89 236.781,185.057 238.5,184C 237.049,184.263 235.716,184.096 234.5,183.5C 236.021,181.379 238.021,179.879 240.5,179C 235.276,178.806 235.443,177.639 241,175.5C 241.667,174.833 241.667,174.167 241,173.5C 240.107,174.711 239.274,174.711 238.5,173.5C 240.097,172.209 241.43,170.709 242.5,169C 241.898,167.437 241.065,167.604 240,169.5C 239.289,167.633 239.789,166.133 241.5,165C 240.552,164.517 239.552,164.351 238.5,164.5C 238.815,162.774 238.981,161.107 239,159.5C 238.667,159.833 238.333,160.167 238,160.5C 237.26,158.681 236.093,157.348 234.5,156.5C 234.389,155.883 234.056,155.383 233.5,155C 236.369,154.623 238.869,155.456 241,157.5C 243.611,160.836 245.111,164.669 245.5,169C 243.455,177.531 240.289,185.364 236,192.5C 232.996,196.696 229.663,200.696 226,204.5C 225.517,205.448 225.351,206.448 225.5,207.5C 224.209,207.263 223.209,207.596 222.5,208.5 Z"/></g>
<g><path style="opacity:0.976" fill="#898a8f" d="M 162.5,202.5 C 163.833,202.5 165.167,202.5 166.5,202.5C 167.822,202.33 168.989,202.663 170,203.5C 170.497,206.146 170.664,208.813 170.5,211.5C 171.389,214.229 173.223,216.229 176,217.5C 176.497,219.81 176.663,222.143 176.5,224.5C 160.163,224.667 143.83,224.5 127.5,224C 128.025,221.236 129.358,220.402 131.5,221.5C 137.991,222.166 144.658,222.5 151.5,222.5C 158.934,222.633 166.267,222.133 173.5,221C 173,220.5 172.5,220 172,219.5C 170.506,220.747 169.006,220.747 167.5,219.5C 166.299,217.091 164.633,215.091 162.5,213.5C 164.167,212.833 165.833,212.167 167.5,211.5C 165.576,211.433 163.576,211.1 161.5,210.5C 163.138,209.295 163.471,207.962 162.5,206.5C 164.007,205.261 165.174,205.595 166,207.5C 168.127,206.603 168.627,205.269 167.5,203.5C 165.239,205.173 163.572,204.84 162.5,202.5 Z"/></g>
<g><path style="opacity:0.176" fill="#8b8b90" d="M 88.5,214.5 C 89.1667,214.5 89.5,214.833 89.5,215.5C 89.8076,217.924 89.4742,220.257 88.5,222.5C 86.7869,222.879 85.7869,223.879 85.5,225.5C 84.8234,223.504 84.8234,221.67 85.5,220C 86.1667,219.667 86.8333,219.333 87.5,219C 86.2068,218.51 84.8734,218.343 83.5,218.5C 83.3838,215.09 85.0504,213.756 88.5,214.5 Z"/></g>
<g><path style="opacity:0.006" fill="#cbcdcc" d="M 79.5,218.5 C 80.525,218.897 80.6917,219.563 80,220.5C 79.5357,219.906 79.369,219.239 79.5,218.5 Z"/></g>
<g><path style="opacity:1" fill="#292a33" d="M 230.5,207.5 C 223.829,216.471 214.829,223.471 203.5,228.5C 203.5,227.5 203.5,226.5 203.5,225.5C 207.712,226.031 208.379,225.031 205.5,222.5C 206.68,220.087 208.68,219.087 211.5,219.5C 211.384,216.09 213.05,214.756 216.5,215.5C 216.384,212.09 218.05,210.756 221.5,211.5C 221.263,210.209 221.596,209.209 222.5,208.5C 222.343,209.873 222.51,211.207 223,212.5C 223.71,211.027 224.876,210.36 226.5,210.5C 226.5,209.5 226.5,208.5 226.5,207.5C 227.833,207.5 229.167,207.5 230.5,207.5 Z"/></g>
<g><path style="opacity:1" fill="#75777f" d="M 199.5,219.5 C 200.778,219.782 201.778,220.449 202.5,221.5C 199.473,223.626 196.14,223.959 192.5,222.5C 195,221.641 197.333,220.641 199.5,219.5 Z"/></g>
<g><path style="opacity:0.039" fill="#b2b2b5" d="M 92.5,231.5 C 92.8966,230.475 93.5632,230.308 94.5,231C 93.9056,231.464 93.2389,231.631 92.5,231.5 Z"/></g>
<g><path style="opacity:0.004" fill="#272a33" d="M 90.5,223.5 C 91.2344,224.878 91.9011,226.378 92.5,228C 117.464,229.884 142.464,230.717 167.5,230.5C 167.833,231.167 168.167,231.833 168.5,232.5C 142.517,233.191 116.85,232.024 91.5,229C 90.5939,227.301 90.2606,225.467 90.5,223.5 Z"/></g>
<g><path style="opacity:0.004" fill="#696d73" d="M 167.5,230.5 C 172.5,230.5 177.5,230.5 182.5,230.5C 182.631,231.376 182.298,232.043 181.5,232.5C 177.183,231.311 172.85,231.311 168.5,232.5C 168.167,231.833 167.833,231.167 167.5,230.5 Z"/></g>
<g><path style="opacity:0.917" fill="#feba00" d="M 13.5,244.5 C 18.8333,244.5 24.1667,244.5 29.5,244.5C 28.1702,250.487 26.8369,256.487 25.5,262.5C 26.0632,265.357 26.7299,268.19 27.5,271C 25.5923,278.463 23.9256,285.963 22.5,293.5C 20.8333,293.5 19.1667,293.5 17.5,293.5C 14.5102,284.196 11.5102,274.863 8.5,265.5C 10.3279,258.522 11.9946,251.522 13.5,244.5 Z"/></g>
<g><path style="opacity:0.909" fill="#feba00" d="M 40.5,244.5 C 45.8333,244.5 51.1667,244.5 56.5,244.5C 55.2946,251.988 53.4613,259.321 51,266.5C 43.5,275.333 36,284.167 28.5,293C 27.2068,293.49 25.8734,293.657 24.5,293.5C 26.1705,285.817 28.0038,278.151 30,270.5C 36.5138,263.172 40.0138,254.506 40.5,244.5 Z"/></g>
<g><path style="opacity:0.932" fill="#feba00" d="M 61.5,244.5 C 66.8333,244.5 72.1667,244.5 77.5,244.5C 73.8277,260.19 69.9944,275.856 66,291.5C 63.4461,292.771 60.6128,293.438 57.5,293.5C 54.8333,293.167 52.1667,292.833 49.5,292.5C 53.8156,276.571 57.8156,260.571 61.5,244.5 Z"/></g>
<g><path style="opacity:0.841" fill="#feba00" d="M 80.5,244.5 C 84.5138,244.334 88.5138,244.501 92.5,245C 91.1667,249.333 89.8333,253.667 88.5,258C 84.8484,258.499 81.1817,258.665 77.5,258.5C 78.5,253.833 79.5,249.167 80.5,244.5 Z"/></g>
<g><path style="opacity:0.924" fill="#feba00" d="M 94.5,244.5 C 104.167,244.5 113.833,244.5 123.5,244.5C 122.974,248.936 121.974,253.269 120.5,257.5C 115.88,258.493 111.214,258.827 106.5,258.5C 103.99,270.207 101.323,281.874 98.5,293.5C 93.1667,293.5 87.8333,293.5 82.5,293.5C 86.0898,277.064 90.0898,260.731 94.5,244.5 Z"/></g>
<g><path style="opacity:0.921" fill="#feba00" d="M 135.5,244.5 C 137.924,244.192 140.257,244.526 142.5,245.5C 140.512,251.783 138.679,258.116 137,264.5C 134.46,266.705 132.293,269.205 130.5,272C 133.482,272.498 136.482,272.665 139.5,272.5C 138.5,277.167 137.5,281.833 136.5,286.5C 133.482,286.335 130.482,286.502 127.5,287C 126.76,288.785 126.093,290.618 125.5,292.5C 120.208,293.495 114.875,293.828 109.5,293.5C 111.662,284.852 113.829,276.186 116,267.5C 122.335,259.667 128.835,252 135.5,244.5 Z"/></g>
<g><path style="opacity:0.931" fill="#feba00" d="M 144.5,244.5 C 146.833,244.5 149.167,244.5 151.5,244.5C 153.16,251.314 155.327,257.981 158,264.5C 157.627,274.007 155.96,283.341 153,292.5C 147.554,293.806 142.054,293.806 136.5,292.5C 138.732,285.406 140.732,278.239 142.5,271C 141.692,268.239 140.692,265.572 139.5,263C 141.398,256.909 143.065,250.742 144.5,244.5 Z"/></g>
<g><path style="opacity:0.932" fill="#feba00" d="M 168.5,244.5 C 173.833,244.5 179.167,244.5 184.5,244.5C 180.828,260.19 176.994,275.856 173,291.5C 170.446,292.771 167.613,293.438 164.5,293.5C 161.833,293.167 159.167,292.833 156.5,292.5C 160.816,276.571 164.816,260.571 168.5,244.5 Z"/></g>
<g><path style="opacity:0.931" fill="#feba00" d="M 196.5,244.5 C 201.5,244.5 206.5,244.5 211.5,244.5C 208.301,260.632 204.467,276.632 200,292.5C 194.554,293.806 189.054,293.806 183.5,292.5C 181.735,287.704 180.068,282.871 178.5,278C 180.922,268.478 183.422,258.978 186,249.5C 187.864,254.091 189.53,258.757 191,263.5C 192.685,257.087 194.519,250.753 196.5,244.5 Z"/></g>
<g><path style="opacity:0.921" fill="#feba00" d="M 226.5,244.5 C 230.555,244.176 234.555,244.509 238.5,245.5C 237.026,249.731 236.026,254.064 235.5,258.5C 233.234,258.141 231.401,258.808 230,260.5C 228.18,267.111 226.68,273.778 225.5,280.5C 226.978,280.238 228.311,280.571 229.5,281.5C 228.184,285.429 227.184,289.429 226.5,293.5C 222.154,293.666 217.821,293.499 213.5,293C 211.486,290.323 209.486,287.656 207.5,285C 210.255,274.145 213.089,263.312 216,252.5C 219.658,249.934 223.158,247.268 226.5,244.5 Z"/></g>
<g><path style="opacity:0.924" fill="#feba00" d="M 240.5,244.5 C 244.182,244.335 247.848,244.501 251.5,245C 254.167,247.667 256.833,250.333 259.5,253C 256.439,263.741 253.606,274.574 251,285.5C 245.095,292.531 237.595,295.198 228.5,293.5C 229.184,289.429 230.184,285.429 231.5,281.5C 232.991,280.756 234.491,280.09 236,279.5C 237.762,272.949 239.595,266.449 241.5,260C 240.437,258.812 239.103,258.312 237.5,258.5C 238.185,253.761 239.185,249.095 240.5,244.5 Z"/></g>
<g><path style="opacity:0.917" fill="#feba00" d="M 263.5,244.5 C 268.833,244.5 274.167,244.5 279.5,244.5C 278.17,250.487 276.837,256.487 275.5,262.5C 276.063,265.357 276.73,268.19 277.5,271C 275.592,278.463 273.926,285.963 272.5,293.5C 270.833,293.5 269.167,293.5 267.5,293.5C 264.51,284.196 261.51,274.863 258.5,265.5C 260.328,258.522 261.995,251.522 263.5,244.5 Z"/></g>
<g><path style="opacity:0.909" fill="#feba00" d="M 290.5,244.5 C 295.833,244.5 301.167,244.5 306.5,244.5C 305.295,251.988 303.461,259.321 301,266.5C 293.5,275.333 286,284.167 278.5,293C 277.207,293.49 275.873,293.657 274.5,293.5C 276.17,285.817 278.004,278.151 280,270.5C 286.514,263.172 290.014,254.506 290.5,244.5 Z"/></g>
<g><path style="opacity:0.921" fill="#feba00" d="M 323.5,244.5 C 325.924,244.192 328.257,244.526 330.5,245.5C 328.512,251.783 326.679,258.116 325,264.5C 322.46,266.705 320.293,269.205 318.5,272C 321.482,272.498 324.482,272.665 327.5,272.5C 326.5,277.167 325.5,281.833 324.5,286.5C 321.482,286.335 318.482,286.502 315.5,287C 314.76,288.785 314.093,290.618 313.5,292.5C 308.208,293.495 302.875,293.828 297.5,293.5C 299.662,284.852 301.829,276.186 304,267.5C 310.335,259.667 316.835,252 323.5,244.5 Z"/></g>
<g><path style="opacity:0.931" fill="#feba00" d="M 332.5,244.5 C 334.833,244.5 337.167,244.5 339.5,244.5C 341.16,251.314 343.327,257.981 346,264.5C 345.627,274.007 343.96,283.341 341,292.5C 335.554,293.806 330.054,293.806 324.5,292.5C 326.732,285.406 328.732,278.239 330.5,271C 329.692,268.239 328.692,265.572 327.5,263C 329.398,256.909 331.065,250.742 332.5,244.5 Z"/></g>
</svg>
